<?xml version="1.0" standalone="yes"?>
<svg xmlns="http://www.w3.org/2000/svg" width="960" height="960">
<path style="fill:#ffffff; stroke:none;" d="M0 0L0 960L960 960L960 0L0 0z"/>
<path style="fill:#ffd6e1; stroke:none;" d="M473 83C476.959 84.6611 481.737 84 486 84C482.041 82.3389 477.263 83 473 83M468 84C469.248 84.6848 469.549 84.7488 471 85C469.752 84.3152 469.452 84.2512 468 84z"/>
<path style="fill:#ffadc4; stroke:none;" d="M449 131C435.475 121.961 421.811 129.14 413.159 141C399.552 159.652 405 183.596 405 205C423.894 205 444.966 209.794 448.674 232C449.514 237.029 448.63 242.017 448 247C461.144 245.34 469.723 249.98 478.27 260C481.96 264.327 485.245 268.235 486 274C497.19 272.785 507.005 262.002 514 254C514 258.842 513.197 264.539 515.457 268.996C520.719 279.375 536.435 278.214 546 275.714C564.59 270.855 580.987 259.076 588 241C598.611 258.99 612.428 274.305 633 280.652C649.245 285.664 666.839 277.721 670 260C671.517 260.957 672.338 261.387 674 262C675.052 254.152 675.452 247.427 671.811 240C661.603 219.177 631.062 209.707 611 221C628.566 193.67 607.557 153.968 581 141.398C563.99 133.347 547.131 133.85 529 134C530.276 124.521 532.039 116.963 527.095 108C517.989 91.4918 496.837 83.9725 479 84C470.412 84.0132 461.573 85.5721 455.468 92.1844C445.437 103.047 448.727 117.775 449 131z"/>
<path style="fill:#ffd6e1; stroke:none;" d="M489 84C490.248 84.6847 490.549 84.7488 492 85C490.752 84.3152 490.452 84.2512 489 84M465.667 85.3333C465.222 85.778 466.278 85.7222 466.333 85.6667C466.778 85.2223 465.722 85.2777 465.667 85.3333M504.667 89.3333C504.222 89.7781 505.278 89.7221 505.333 89.6667C505.778 89.2223 504.722 89.2776 504.667 89.3333M449.333 102.667C449.278 102.722 449.222 103.778 449.667 103.333C449.722 103.278 449.778 102.222 449.333 102.667M448 106L448 109C448.696 107.446 448.696 107.554 448 106M529.333 112.667C529.278 112.722 529.222 113.778 529.667 113.333C529.722 113.278 529.778 112.222 529.333 112.667M530.333 116.667C530.278 116.722 530.222 117.778 530.667 117.333C530.722 117.278 530.778 116.222 530.333 116.667M448 124L448 128C448.71 126.24 448.71 125.759 448 124M433 126C435.332 126.985 437.457 126.981 440 127C437.669 126.016 435.543 126.019 433 126M530 126L530 129C530.696 127.446 530.696 127.554 530 126M441.667 127.333C441.222 127.778 442.278 127.722 442.333 127.667C442.778 127.222 441.722 127.278 441.667 127.333M531 133C533.052 133.874 534.747 133.953 537 134C534.948 133.126 533.253 133.047 531 133M548 133C550.052 133.874 551.747 133.953 554 134C551.948 133.126 550.253 133.047 548 133M557 134C558.506 134.683 559.315 134.826 561 135C559.494 134.317 558.685 134.174 557 134M563.667 135.333C563.222 135.778 564.278 135.722 564.333 135.667C564.778 135.222 563.722 135.278 563.667 135.333M575.667 139.333C575.222 139.778 576.278 139.722 576.333 139.667C576.778 139.222 575.722 139.278 575.667 139.333M405.333 157.667C405.278 157.722 405.222 158.778 405.667 158.333C405.722 158.278 405.778 157.222 405.333 157.667M404 161L404 165C404.71 163.241 404.71 162.759 404 161M403 171L403 180C404.256 177.006 404.256 173.994 403 171M352 172C354.052 172.874 355.747 172.953 358 173C355.948 172.126 354.253 172.047 352 172z"/>
<path style="fill:#ffadc4; stroke:none;" d="M324 226C325.283 197.993 376.692 181.663 386 213C392.208 211.036 397.543 207.495 404 206C401.503 196.654 397.561 188.655 389.999 182.326C374.05 168.976 346.059 169.064 330 182.329C321.818 189.087 317.191 197.664 315.261 208C314.725 210.869 313.456 214.846 314.618 217.675C316.067 221.202 320.983 223.939 324 226z"/>
<path style="fill:#ffd6e1; stroke:none;" d="M362 172C364.052 172.874 365.747 172.953 368 173C365.948 172.126 364.253 172.047 362 172M347 173C348.248 173.685 348.548 173.749 350 174C348.752 173.315 348.452 173.251 347 173M370 173C371.248 173.685 371.548 173.749 373 174C371.752 173.315 371.452 173.251 370 173M344.667 174.333C344.222 174.778 345.278 174.722 345.333 174.667C345.778 174.222 344.722 174.278 344.667 174.333M374.667 174.333C374.222 174.778 375.278 174.722 375.333 174.667C375.778 174.222 374.722 174.278 374.667 174.333M341.667 175.333C341.222 175.778 342.278 175.722 342.333 175.667C342.778 175.222 341.722 175.278 341.667 175.333M612.333 175.667C612.278 175.722 612.222 176.778 612.667 176.333C612.722 176.278 612.778 175.222 612.333 175.667M613.333 178.667C613.278 178.722 613.222 179.778 613.667 179.333C613.722 179.278 613.778 178.222 613.333 178.667M614.333 181.667C614.278 181.722 614.222 182.778 614.667 182.333C614.722 182.278 614.778 181.222 614.333 181.667M615.333 185.667C615.278 185.722 615.222 186.778 615.667 186.333C615.722 186.278 615.778 185.222 615.333 185.667M616 189L616 193C616.71 191.24 616.71 190.76 616 189M404 190L404 200C405.346 196.793 405.346 193.207 404 190M318.333 196.667C318.278 196.722 318.222 197.778 318.667 197.333C318.722 197.278 318.778 196.222 318.333 196.667z"/>
<path style="fill:#ffbae4; stroke:none;" d="M324 226C307.916 210.652 284.614 209.635 268.004 225.093C260.4 232.17 254.407 242.239 255.63 253C256.077 256.934 256.636 260.696 260 263C255.149 263.612 249.962 261.828 245 261.514C240.139 261.207 234.655 262.047 230 263.44C226.783 264.403 223.733 265.818 221.004 267.789C206.125 278.538 212.043 296.318 222 308C218.281 308.002 214.566 307.874 211 309.109C192.396 315.548 191 335.418 191 352C192.213 349.11 191.998 346.126 192 343C204.927 352.106 213.344 365.499 231 364.942C236.418 364.771 241.698 362.097 247 361C247.413 380.366 267.014 385.077 283 384.999C293.474 384.948 305.356 379.765 306 368C313.173 370.391 319.235 372.843 327 371.699C343.954 369.2 368.509 350.318 357 332C369.95 337.384 383.534 346.071 398 346.149C403.032 346.176 407.26 343.091 412 341.786C416.194 340.63 420.693 341 425 341C422.668 340.015 420.543 340.019 418 340C421.78 336.013 424.426 332.566 425 327C433.023 337.189 443.425 331.601 449.401 321.999C457.007 309.779 457.465 295.223 453 282C454.578 283.459 456.058 285.045 458.025 285.997C469.363 291.486 477.367 275.186 476.785 266C476.582 262.792 475.285 259.891 474 257C475.478 257.986 475.203 258 477 258C470.148 248.359 459.329 244.897 448 247C448.913 242.081 449.422 237.001 448.816 232C446.271 211.026 423.698 202.209 405 205.326C398.088 206.478 392.223 210.096 386 213C383.839 201.068 372.086 195.926 361 196.005C343.737 196.128 324.4 207.205 324 226z"/>
<path style="fill:#ffd6e1; stroke:none;" d="M401.333 197.667C401.278 197.722 401.222 198.778 401.667 198.333C401.723 198.277 401.777 197.223 401.333 197.667M617 198L617 203C617.83 200.97 617.83 200.03 617 198M316.333 201.667C316.278 201.722 316.222 202.778 316.667 202.333C316.722 202.278 316.778 201.222 316.333 201.667M403.333 203.667C403.278 203.722 403.222 204.778 403.667 204.333C403.722 204.277 403.778 203.222 403.333 203.667M315 204L315 207C315.696 205.446 315.696 205.554 315 204M616 207L616 210C616.696 208.446 616.696 208.554 616 207M314 209L314 213C314.71 211.241 314.71 210.759 314 209M615.333 211.667C615.278 211.722 615.222 212.778 615.667 212.333C615.722 212.278 615.778 211.222 615.333 211.667z"/>
<path style="fill:#ffdcf1; stroke:none;" d="M293 213C295.052 213.874 296.747 213.953 299 214C296.948 213.126 295.253 213.047 293 213z"/>
<path style="fill:#ffd6e1; stroke:none;" d="M622 216C623.248 216.685 623.548 216.749 625 217C623.752 216.315 623.451 216.251 622 216M635 216C636.506 216.683 637.315 216.826 639 217C637.494 216.317 636.685 216.174 635 216M618.667 217.333C618.222 217.778 619.278 217.722 619.333 217.667C619.778 217.222 618.722 217.278 618.667 217.333M641.667 217.333C641.222 217.778 642.278 217.722 642.333 217.667C642.778 217.222 641.722 217.278 641.667 217.333M644.667 218.333C644.222 218.778 645.278 218.722 645.333 218.667C645.778 218.222 644.722 218.278 644.667 218.333M611 221L614 220C612.222 219.045 611.979 219.234 611 221M649.667 220.333C649.222 220.778 650.278 220.722 650.333 220.667C650.778 220.222 649.722 220.278 649.667 220.333z"/>
<path style="fill:#ff87c4; stroke:none;" d="M588 241C578.78 258.291 565.212 269.926 546 275.441C535.578 278.432 519.875 278.999 515.009 267C513.394 263.016 514 258.211 514 254C504.933 261.31 497.075 268.811 487 275C491.394 292.835 484.968 304.777 470 315C473.44 316.484 477.374 316.499 481 317.569C492.764 321.041 507.199 327.204 511 340C518.559 337.823 525.07 333.687 533 332.439C541.401 331.117 547.97 334.506 556 334.733C561.025 334.875 565.955 332.42 571 332.09C576.726 331.717 582.358 333.283 588 334C586.572 328.656 584.494 323.651 585.302 318C587.978 299.268 609.252 282.777 628 284.091C638.156 284.803 645.926 291.665 654 297C654.113 283.554 663.887 274.469 676 270C675.167 265.696 673.366 262.791 670 260C668.72 264.434 666.633 268.427 663.671 271.999C644.948 294.585 613.942 274.106 599.3 257C595.023 252.003 592.177 245.989 588 241z"/>
<path style="fill:#ffd6e1; stroke:none;" d="M673.333 243.667C673.278 243.722 673.222 244.778 673.667 244.333C673.722 244.278 673.778 243.222 673.333 243.667M674 246L674 249C674.696 247.446 674.696 247.554 674 246z"/>
<path style="fill:#ff94c4; stroke:none;" d="M474 257C474.937 259.927 476.374 262.902 476.603 266C477.162 273.589 470.375 288.549 461 286.664C457.996 286.059 455.476 283.664 453 282C456.324 296.034 457.345 309.203 448.755 321.999C442.979 330.603 433.426 337.2 426 327C423.45 331.505 420.933 335.692 418 340C430.762 340.263 438.036 347.121 449 352C450.463 335.351 467.541 324.824 483 323.174C487.737 322.668 492.307 323.63 497 324C490.129 318.334 478.732 316.072 470 316C479.373 308.77 488.04 301.678 488.909 289C489.256 283.934 487.671 279.047 488 274C483.008 267.757 481.845 261.073 474 257z"/>
<path style="fill:#ffd6e1; stroke:none;" d="M674 258L674 261C674.696 259.446 674.696 259.554 674 258z"/>
<path style="fill:#ffcce1; stroke:none;" d="M673.333 262.667C673.278 262.722 673.222 263.778 673.667 263.333C673.722 263.278 673.778 262.222 673.333 262.667z"/>
<path style="fill:#ffdcf1; stroke:none;" d="M256 263C257.506 263.683 258.315 263.826 260 264C258.494 263.317 257.685 263.174 256 263z"/>
<path style="fill:#ffbae4; stroke:none;" d="M676 268C672.558 271.37 667.872 273.007 664.015 275.924C656.811 281.372 654.024 288.237 654 297C643.409 287.275 631.399 282.921 617 285.326C594.642 289.059 580.325 312.941 588 334C577.392 332.031 566.434 332.615 556 335C559.149 337.804 562.82 339.96 565.699 343.09C574.065 352.184 574.46 362.448 573 374C597.453 370.912 613.812 394.251 614 417C623.466 419.191 629.537 425.124 638 429C638.188 406.626 667.744 393.218 687 401.905C693.474 404.826 696.788 409.945 700 416C707.004 413.084 713.348 409.393 721 408.3C736.771 406.047 755.348 413.878 760.377 430C762.509 436.836 761.297 443.087 761 450C765.603 450 770.526 449.517 775 450.789C786.481 454.052 797.441 466.079 799 478C810.357 470.99 819.874 462.101 820 448C821.808 450.105 823.525 452.241 826.041 453.545C836.853 459.146 844.913 445.926 846.624 437C852.215 407.841 826.028 387.018 799 387C807.292 380.907 815.468 374.762 817.621 364C821.962 342.299 802.88 310.646 778 318C778 309.643 779.188 300.65 775.175 293C763.782 271.278 733.963 272.153 716 284C715.4 281.503 714.757 279.167 713.297 277.002C704.126 263.4 689.384 268.425 676 268z"/>
<path style="fill:#ffdcf1; stroke:none;" d="M738 275C741.163 276.327 744.586 276 748 276C744.837 274.673 741.414 275 738 275z"/>
<path style="fill:#ffa1d4; stroke:none;" d="M620 284C623.697 285.552 628.017 285 632 285C628.303 283.448 623.983 284 620 284z"/>
<path style="fill:#ffdcf1; stroke:none;" d="M778 304L778 312C779.161 309.23 779.161 306.77 778 304M217 307C218.769 307.779 220.036 307.912 222 308C220.231 307.221 218.964 307.088 217 307z"/>
<path style="fill:#ffa1d4; stroke:none;" d="M585 316L585 326C586.346 322.793 586.346 319.207 585 316z"/>
<path style="fill:#ffaada; stroke:none;" d="M480 323C481.769 323.779 483.036 323.912 485 324C483.231 323.221 481.964 323.088 480 323z"/>
<path style="fill:#ffbff0; stroke:none;" d="M450 354C434.154 338.491 411.265 335.94 394.001 351.184C385.949 358.294 380.067 367.943 380.598 379C380.798 383.169 381.449 387.567 385 390C381.254 390.473 377.798 389.127 374 389.015C358.981 388.576 337.558 391.654 337.015 411C336.93 414.037 336.959 417.102 337.966 420C339.829 425.362 343.27 430.077 346 435C322.758 435.195 316 456.372 316 476C318.746 469.47 319.033 460.995 321 454C326.095 470.078 330.625 486.291 350 489.409C354.474 490.129 357.979 490.146 362 488C361.078 491.281 360.001 494.55 360.508 498C362.587 512.154 381.494 518.529 394 516.791C404.14 515.381 412.952 509.224 422 505C423.346 520.418 438.04 529.963 453 527.56C460.921 526.288 467.614 521.821 475 519.015C484.765 515.306 495.133 518.789 505 516.072C521.75 511.46 528.758 491.609 530 476C539.201 483.419 545.365 492.049 558 493.711C572.123 495.568 586.168 486.611 583.787 471C583.1 466.499 580.291 462.805 578 459C586.712 463.147 595.08 471.028 605 471.811C612.037 472.367 620.285 466.436 620.678 459C620.833 456.078 619.263 453.514 618 451C624.732 456.344 631.735 461.109 637 468C637.668 463.126 632.481 458.403 628.985 455.465C619.697 447.657 607.105 443.033 595 443C603.925 436.115 611.759 429.749 613.675 418C617.406 395.119 596.494 369.638 573 374C573.913 369.082 574.422 364.001 573.816 359C573.355 355.204 571.956 351.304 570.045 348C556.795 325.093 530.54 331.865 511 340C508.577 326.624 494.957 322.554 483 323.73C470.558 324.953 455.886 330.139 450.995 343C449.671 346.481 450 350.344 450 354z"/>
<path style="fill:#ffaada; stroke:none;" d="M488 323C489.769 323.779 491.036 323.912 493 324C491.231 323.221 489.964 323.088 488 323z"/>
<path style="fill:#ff94c4; stroke:none;" d="M357 332C358.414 335.132 360.672 338.429 360.433 342C359.433 356.955 338.568 370.374 325 371.826C317.987 372.577 312.592 369.409 306 368C304.845 378.375 293.745 384.73 284 384.985C268.216 385.398 247.867 379.933 247 361C241.304 361.768 235.722 364.939 230 364.867C220.875 364.753 212.815 360.51 206 354.699C201.661 350.999 198.225 346.437 193 344C193 356.769 194.867 370.872 208 377C205.828 383.529 203.576 390.03 203.209 397C201.72 425.307 237.152 423.845 256 419.996C260.048 419.169 263.978 417.922 268 417C268.957 438.941 298.079 447.366 316 439.662C324.89 435.84 329.633 428.634 337 423C337.209 417.517 336.081 411.231 337.97 406C344.885 386.846 366.987 388.736 383 390C380.271 378.063 380.068 368.013 388.329 358C391.901 353.67 396.496 350.346 400 346C384.127 345.869 371.697 336.232 357 332z"/>
<path style="fill:#ffa1d4; stroke:none;" d="M567 332C570.697 333.552 575.017 333 579 333C575.303 331.448 570.983 332 567 332z"/>
<path style="fill:#ffdcf1; stroke:none;" d="M191 334L191 338C191.71 336.241 191.71 335.759 191 334z"/>
<path style="fill:#ffa7d4; stroke:none;" d="M192 343L192 354C193.429 350.596 193.134 346.636 194 343L192 343z"/>
<path style="fill:#ffaada; stroke:none;" d="M449 347C448.857 349.406 448.735 351.612 449 354C450.059 351.466 450.059 349.534 449 347z"/>
<path style="fill:#ffc9e1; stroke:none;" d="M194.333 360.667C194.278 360.722 194.222 361.778 194.667 361.333C194.722 361.278 194.778 360.222 194.333 360.667z"/>
<path style="fill:#ffdcf1; stroke:none;" d="M799 387L802 387L801 385C799.365 385.545 799.545 385.365 799 387z"/>
<path style="fill:#ffc9e1; stroke:none;" d="M204.333 387.667C204.278 387.722 204.222 388.778 204.667 388.333C204.722 388.278 204.778 387.222 204.333 387.667z"/>
<path style="fill:#ffaada; stroke:none;" d="M367 388C368.506 388.683 369.315 388.826 371 389C369.494 388.317 368.685 388.174 367 388M381 390C382.506 390.683 383.315 390.826 385 391C383.494 390.317 382.685 390.174 381 390z"/>
<path style="fill:#ffc9e1; stroke:none;" d="M203 391L203 395C203.71 393.241 203.71 392.759 203 391z"/>
<path style="fill:#ffadc4; stroke:none;" d="M638 429C630.23 423.692 623.616 418.42 614 417C610.385 428.303 604.885 435.248 595 442C598.439 443.457 602.384 443.363 606 444.519C619.607 448.871 632.166 455.504 638.677 469C643.765 479.547 644.746 491.608 638.518 501.999C635.92 506.334 631.477 510.814 626 510.667C622.316 510.567 619.232 507.469 616 506C615.5 508.963 614.285 511.963 614.572 515C615.746 527.43 627.822 545.682 640 549.351C643.947 550.54 648.057 549.732 652 549C652 555.376 651.467 562.328 655.005 567.985C658.058 572.864 663.582 575.44 669 576.761C686.005 580.907 699.619 572.533 707 557C714.946 566.529 727.967 570.096 740 566.841C750.045 564.124 757.54 557.717 753 547C762.88 550.7 781.479 547.806 777.196 533C774.414 523.382 764.955 517.887 757 513C762.703 511.638 768.153 511.384 772.985 507.585C787.231 496.384 786.682 471.245 781 456C788.165 461.836 794.299 468.425 798 477C799.341 472.878 796.252 468.485 794.049 465C786.017 452.295 774.93 450 761 450C761.617 442.181 762.834 434.532 759.637 427C749.478 403.065 718.747 405.058 700 416C688.939 386.193 638.083 399.052 638 429z"/>
<path style="fill:#ffc9e1; stroke:none;" d="M203 401L203 404C203.696 402.446 203.696 402.554 203 401z"/>
<path style="fill:#ff87c4; stroke:none;" d="M208 413C208.082 416.971 208.064 422.285 210.175 425.787C212.888 430.287 220.638 434.118 225 437C225.999 431.854 227.627 427.033 229 422C220.803 420.895 214.809 417.443 208 413z"/>
<path style="fill:#ffadc4; stroke:none;" d="M225 437C204.939 418.58 170.982 422.066 159.36 449C156.082 456.595 157.377 464.101 158 472C149.789 471.647 143.058 471.669 135 473.849C130.773 474.992 126.763 476.138 123.001 478.468C105.864 489.084 114.169 512.13 125.3 523.938C127.783 526.572 130.997 527.276 133.7 529.468C137.148 532.266 139.286 536.177 143.015 538.776C154.164 546.55 165.024 542.084 175 535C175.002 549.497 179.392 565.771 195 570.557C198.212 571.542 201.692 572.306 205 571.347C214.761 568.52 220.423 557.958 229 553C229 560.822 228.383 570.746 234.225 576.867C248.959 592.306 274.071 573.42 277 557C278.439 561.241 278.647 567.26 282.394 570.258C285.819 572.998 291.346 571.921 295 570.235C303.33 566.391 310.436 557.714 313 549C316.046 556.081 316.064 564.55 323.015 569.297C337.472 579.17 360.513 563.051 365 549C348.957 549 328.859 544.988 328.26 525C328.076 518.857 333.484 510.698 331.727 505.001C329.764 498.636 322.352 494.495 319.799 488C311.53 466.96 318.812 435.579 346 435C344.625 431.366 341.148 422.972 336.074 423.882C333.122 424.411 330.919 428.006 328.961 429.986C325.681 433.302 322.141 436.057 318 438.214C300.153 447.511 269.852 439.64 268 417C259.599 418.236 251.561 421.321 243 421.911C238.909 422.192 232.81 420.753 229.419 423.603C225.926 426.539 225.544 432.789 225 437z"/>
<path style="fill:#ffc3e1; stroke:none;" d="M208 419L208 422C208.696 420.446 208.696 420.554 208 419z"/>
<path style="fill:#e15e8f; stroke:none;" d="M337 420L336 421C337.33 422.753 338.247 423.67 340 425C339.251 422.746 338.656 421.687 337 420z"/>
<path style="fill:#ffd6e1; stroke:none;" d="M194 424C196.052 424.874 197.747 424.953 200 425C197.948 424.126 196.253 424.047 194 424M188 425C189.248 425.685 189.548 425.749 191 426C189.752 425.315 189.452 425.251 188 425M203 425C204.248 425.685 204.548 425.749 206 426C204.752 425.315 204.452 425.251 203 425M209 425L207 426C208.482 426.791 209.796 426.87 209 425z"/>
<path style="fill:#ff99ca; stroke:none;" d="M618 451C618.887 453.504 620.563 456.273 620.382 459C619.903 466.205 610.803 472.598 604 471.517C594.393 469.991 587.103 462.105 578 459C580.242 464.41 584.114 468.824 583.941 475C583.517 490.189 566.628 496.294 554 492.699C543.619 489.743 538.83 480.714 530 476C527.591 494.657 519.128 513.359 499 517.485C490.828 519.161 481.984 516.372 474 519.055C466.485 521.581 459.98 526.313 452 527.559C437.586 529.811 424.071 519.013 422 505C412.36 508.051 404.202 514.717 394 516.623C382.365 518.798 365.058 511.877 361.264 500C359.957 495.91 361.169 492.043 362 488C341.308 496.765 322.854 472.679 322 454C314.524 463.131 317.166 481.508 322.309 491C324.803 495.604 329.24 500.135 330.978 505C332.193 508.402 330.165 512.648 329.424 516C328.07 522.132 327.65 527.966 329.84 534C332.848 542.292 340.896 546.231 349 547.985C364.052 551.244 378.528 547.839 393 544C393.903 564.705 419.265 572.87 437 568.073C447.605 565.204 457.162 556.712 462 547C486.371 559.756 527.853 557.977 540 529C553.315 548.33 583.072 542.073 600 530.64C605.165 527.152 609.502 518.895 615 517C614.672 513.192 615.635 509.767 616 506C618.499 507.679 620.986 510.01 624 510.668C638.935 513.928 643.687 492.561 642.91 482C641.859 467.725 629.641 457.633 618 451z"/>
<path style="fill:#ffd6e1; stroke:none;" d="M157.333 454.667C157.278 454.722 157.222 455.778 157.667 455.333C157.722 455.278 157.778 454.222 157.333 454.667z"/>
<path style="fill:#ff87c4; stroke:none;" d="M781 456C785.44 472.609 787.625 495.498 771.996 507.585C767.38 511.155 762.318 511.41 757 513C763.917 519.031 772.66 522.968 776.463 532C779.591 539.43 773.299 546.963 766 548.605C761.626 549.589 757.182 548.175 753 547C756.426 558.008 749.443 564.016 739 566.841C727.766 569.88 715.149 566.163 708 557C700.988 563.408 697.182 571.974 688 576.095C677.645 580.742 661.1 576.9 655.005 566.996C651.667 561.571 652 555.11 652 549C648.713 549.415 645.307 550.307 642 549.603C626.688 546.34 620.702 527.776 614 516C609.809 520.014 606.64 524.831 602 528.482C589.16 538.586 566.819 545.888 551 538.583C546.305 536.415 543.489 532.584 540 529C531.658 543.076 520.348 549.56 505 554C506.532 564.371 511.373 575.002 521 580C519.062 585.023 517.435 589.611 516.925 595C516.502 599.479 515.659 603.555 516.939 608C522.963 628.922 553.469 626.919 570 623.113C573.723 622.255 577.363 621.163 581 620C581.204 629.588 586.495 636.372 595 640.726C598.671 642.605 602.822 643.386 606 646C611.406 643.89 617.363 645.705 623 644.624C634.593 642.401 644.835 633.37 650 623C654.34 624.807 658.442 627.264 663 628.51C676.73 632.262 692.792 630.305 706 625.655C714.97 622.497 725.655 615.064 727 605C730.956 608.469 733.897 612.885 739.001 614.856C758.382 622.344 791.771 612.312 800.95 593C803.05 588.582 802.997 583.774 803 579C805.268 581.76 807.523 584.953 811.004 586.254C820.648 589.859 827.794 578.901 829.482 571C830.249 567.411 830.001 563.646 830 560C829.99 534.532 807.851 521.951 785 519C808.988 503.745 804.481 469.574 781 456z"/>
<path style="fill:#ffd6e1; stroke:none;" d="M156 459L156 464C156.83 461.969 156.83 461.031 156 459M157 467L157 470C157.696 468.446 157.696 468.554 157 467z"/>
<path style="fill:#ffacdd; stroke:none;" d="M317 467C316.986 472.069 316.17 476.973 317 482C318.74 477.852 318.74 471.148 317 467z"/>
<path style="fill:#ffd6e1; stroke:none;" d="M142 471C143.769 471.779 145.036 471.912 147 472C145.231 471.221 143.964 471.088 142 471M152 471C153.506 471.683 154.315 471.826 156 472C154.494 471.317 153.685 471.174 152 471M138.667 472.333C138.222 472.778 139.278 472.722 139.333 472.667C139.778 472.222 138.722 472.278 138.667 472.333z"/>
<path style="fill:#ffffff; stroke:none;" d="M158 472L159 473L158 472z"/>
<path style="fill:#ffd6e1; stroke:none;" d="M134 473C135.248 473.685 135.548 473.749 137 474C135.752 473.315 135.452 473.251 134 473M131.667 474.333C131.222 474.778 132.278 474.722 132.333 474.667C132.778 474.222 131.722 474.278 131.667 474.333M800.333 479.667C800.278 479.722 800.222 480.778 800.667 480.333C800.722 480.278 800.778 479.222 800.333 479.667z"/>
<path style="fill:#ffc3e1; stroke:none;" d="M801 483L801 489C801.951 486.715 801.951 485.285 801 483z"/>
<path style="fill:#ffbff0; stroke:none;" d="M319 485C319.654 489.993 322.259 493.857 325 498C325.632 493.664 321.726 488.287 319 485z"/>
<path style="fill:#ffd6e1; stroke:none;" d="M114.333 487.667C114.278 487.722 114.222 488.778 114.667 488.333C114.722 488.278 114.778 487.222 114.333 487.667M113 490L113 493C113.696 491.446 113.696 491.554 113 490z"/>
<path style="fill:#ffc3e1; stroke:none;" d="M801 491L801 495C801.71 493.24 801.71 492.76 801 491z"/>
<path style="fill:#ffd6e1; stroke:none;" d="M113 501L113 504C113.696 502.446 113.696 502.554 113 501z"/>
<path style="fill:#ffacdd; stroke:none;" d="M479 517C484.959 519.5 493.564 518 500 518C494.041 515.5 485.436 517 479 517z"/>
<path style="fill:#ffc3e1; stroke:none;" d="M788 519C789.506 519.683 790.315 519.826 792 520C790.494 519.317 789.685 519.174 788 519M793 520C794.248 520.685 794.548 520.749 796 521C794.752 520.315 794.452 520.251 793 520M797.667 521.333C797.223 521.777 798.278 521.722 798.333 521.667C798.778 521.222 797.722 521.278 797.667 521.333M800.667 522.333C800.222 522.778 801.278 522.722 801.333 522.667C801.778 522.222 800.722 522.278 800.667 522.333z"/>
<path style="fill:#ff87c4; stroke:none;" d="M131 527C128.785 530.897 127.455 534.529 126.951 539C123.972 565.445 146.766 582.087 171 584C169.335 587.16 167.918 590.443 167.326 594C164.343 611.906 181.08 622.262 197 622.961C201.596 623.162 206.487 623.305 211 622.33C213.683 621.751 217.148 619.722 219.91 620.498C222.805 621.311 224.913 624.769 227.039 626.714C231.407 630.709 236.396 635.063 242 637.197C251.964 640.99 263.83 638.704 274 637.299C283.452 635.994 291.952 635.2 301 631.644C308.926 628.53 316.376 624.295 317 615C323.971 623.934 332.336 625.004 343 625C364.326 624.992 390.984 611.838 391 588C393.035 590.382 395.022 592.919 398.015 594.141C406.241 597.501 413.739 590.007 416.521 583C418.361 578.364 416.983 572.982 420 569C416.519 567.313 412.571 566.835 409 565.275C399.679 561.206 393.832 554.178 393 544C386.905 545.033 381.127 547.424 375 548.409C372.135 548.869 368.091 548.37 365.609 550.028C361.876 552.522 359.337 557.776 355.996 560.91C345.47 570.781 324.689 579.138 317.133 561C315.566 557.238 314.821 552.977 314 549C312.171 551.184 310.85 553.635 309.251 556.001C303.575 564.397 285.034 581.675 279.225 564.001C278.469 561.703 278.196 559.393 278 557C272.523 565.14 268.875 573.167 260 578.521C250.925 583.995 237.757 582.876 232.09 572.999C228.7 567.093 229 559.566 229 553C219.422 556.71 214.724 567.534 205 570.991C200.528 572.58 194.958 570.717 191 568.467C178.883 561.579 175.009 548.008 175 535C163.098 540.895 154.252 547.16 142.039 537.319C138.002 534.066 135.662 529.367 131 527z"/>
<path style="fill:#ffc3e1; stroke:none;" d="M126 539L126 543C126.71 541.24 126.71 540.76 126 539M126 546L126 550C126.71 548.24 126.71 547.76 126 546z"/>
<path style="fill:#e15e8f; stroke:none;" d="M462 547C458.469 551.911 454.976 556.485 450 560C455.142 563.565 460.896 566.55 467 568C470.661 559.381 472.115 550.723 462 547z"/>
<path style="fill:#b15848; stroke:none;" d="M470 551L470 556L473 552C471.752 551.315 471.452 551.251 470 551z"/>
<path style="fill:#ffc3e1; stroke:none;" d="M127 552L127 556C127.71 554.24 127.71 553.76 127 552z"/>
<path style="fill:#805100; stroke:none;" d="M471 552L468 569C463.065 566.946 456.435 561.582 451 561.82C446.456 562.019 441.414 566.494 437 568C439.638 573.691 444.665 577.735 448.038 583C453.199 591.058 456.228 600.745 458.349 610C463.907 634.252 459.807 658.581 462.17 683C462.767 689.17 464.624 694.998 466 701C476.369 699.346 474.522 713.124 475.424 720C477.126 732.957 471.202 747.518 474.789 760C477.044 767.845 483.621 773.381 488 780C493 773.805 494.234 764.692 495.155 757C497.096 740.792 494.119 724.118 496.428 708C497.308 701.856 498.634 695.633 501.327 690C502.766 686.991 505.447 684.261 506.242 681C506.986 677.95 506.026 674.146 506 671C503.482 673.096 502.185 674.943 501 678C498.161 668.396 500.397 656.963 499.961 647C499.139 628.237 496.978 609.786 499.286 591C500.853 578.254 506.011 566.826 505 554C501.941 554.241 497.214 554.148 494.649 556.024C490.911 558.757 489.169 566.726 488 571C486.152 565.54 485.721 559.702 485 554C480.196 553.9 475.729 552.637 471 552z"/>
<path style="fill:#c07565; stroke:none;" d="M474.667 552.333C474.222 552.778 475.278 552.722 475.333 552.667C475.778 552.222 474.722 552.278 474.667 552.333M478 553C479.248 553.685 479.549 553.749 481 554C479.752 553.315 479.452 553.251 478 553z"/>
<path style="fill:#f07cad; stroke:none;" d="M485 554C487.89 555.213 490.874 554.998 494 555C491.11 553.787 488.126 554.002 485 554z"/>
<path style="fill:#c07565; stroke:none;" d="M494 554C496.332 554.984 498.457 554.981 501 555C498.668 554.015 496.543 554.019 494 554z"/>
<path style="fill:#b15848; stroke:none;" d="M485 555L485 558C485.696 556.446 485.696 556.554 485 555z"/>
<path style="fill:#e15e8f; stroke:none;" d="M486 555L487 570C489.88 565.664 492.09 560.119 493 555L486 555z"/>
<path style="fill:#b15848; stroke:none;" d="M493.333 555.667C493.278 555.722 493.222 556.778 493.667 556.333C493.722 556.278 493.778 555.222 493.333 555.667z"/>
<path style="fill:#ffc3e1; stroke:none;" d="M830 555L830 568C831.591 564.209 831.591 558.791 830 555z"/>
<path style="fill:#c06c62; stroke:none;" d="M505.333 557.667C505.278 557.722 505.222 558.778 505.667 558.333C505.722 558.278 505.778 557.222 505.333 557.667z"/>
<path style="fill:#ffd6e1; stroke:none;" d="M128.333 558.667C128.278 558.722 128.222 559.778 128.667 559.333C128.722 559.278 128.778 558.222 128.333 558.667z"/>
<path style="fill:#b15848; stroke:none;" d="M492 558L493 559L492 558z"/>
<path style="fill:#ffadc4; stroke:none;" d="M129 559C130.647 568.097 138.937 576.246 148 578L138.286 569.572L129 559z"/>
<path style="fill:#b15848; stroke:none;" d="M469.333 559.667C469.278 559.722 469.222 560.778 469.667 560.333C469.722 560.278 469.778 559.222 469.333 559.667z"/>
<path style="fill:#985424; stroke:none;" d="M491.333 560.667C491.278 560.722 491.222 561.778 491.667 561.333C491.722 561.278 491.778 560.222 491.333 560.667z"/>
<path style="fill:#c06c62; stroke:none;" d="M506 560L506 563C506.696 561.446 506.696 561.554 506 560z"/>
<path style="fill:#b15848; stroke:none;" d="M452 561L453 562L452 561M454 562L455 563L454 562M486 562L486 566C486.71 564.24 486.71 563.76 486 562M490.333 562.667C490.278 562.722 490.222 563.778 490.667 563.333C490.722 563.278 490.778 562.222 490.333 562.667z"/>
<path style="fill:#e15e8f; stroke:none;" d="M506 563C497.663 589.073 499.446 614.162 500 641L504 638C504.992 650.123 513.546 657.633 524 662.741C542.568 671.813 560.611 671.711 580 665.329C590.255 661.954 604.384 656.091 606 644C593.798 642.171 581.593 632.948 581 620C576.639 621 572.377 622.39 568 623.338C549.941 627.249 517.647 627.113 516.094 602C515.614 594.242 519.013 587.281 521 580C515.06 575.471 510.145 570.289 508 563L506 563z"/>
<path style="fill:#c07565; stroke:none;" d="M445 564L446 565L445 564z"/>
<path style="fill:#985424; stroke:none;" d="M468.333 564.667C468.278 564.722 468.222 565.778 468.667 565.333C468.722 565.278 468.778 564.222 468.333 564.667z"/>
<path style="fill:#b15848; stroke:none;" d="M505 564L506 565L505 564z"/>
<path style="fill:#c07565; stroke:none;" d="M443 565L444 566L443 565z"/>
<path style="fill:#985424; stroke:none;" d="M489.333 565.667C489.278 565.722 489.222 566.778 489.667 566.333C489.722 566.278 489.778 565.222 489.333 565.667z"/>
<path style="fill:#c07565; stroke:none;" d="M441 566L442 567L441 566z"/>
<path style="fill:#b15848; stroke:none;" d="M464 567L465 568L464 567M467 567L466 569L468 569C468 567.147 468.3 567.65 467 567M488.333 567.667C488.278 567.722 488.222 568.778 488.667 568.333C488.722 568.278 488.778 567.222 488.333 567.667M504 567L505 568L504 567z"/>
<path style="fill:#e15e8f; stroke:none;" d="M419 569C418.59 578.531 410.816 601.844 397.059 593.13C395.294 592.013 394.25 590.614 393 589C389.694 595.171 388.703 601.479 383.815 606.996C369.891 622.712 333.015 635.815 318 615C308.858 632.755 287.046 637.987 268 638C273.18 649.075 288.093 652.579 299 655.37C323.779 661.712 350.772 657.705 372 643.254C380.255 637.634 386.974 630.026 394 623C399.715 636.635 413.634 647.796 429 641.517C432.998 639.883 435.962 636.966 439 634C442.685 644.545 451.116 647.784 461 651C461 628.492 460.343 604.273 449.096 584C445.684 577.85 440.52 573.245 436 568C429.935 569.704 425.175 569.265 419 569z"/>
<path style="fill:#b15848; stroke:none;" d="M436.333 568.667C436.278 568.722 436.222 569.778 436.667 569.333C436.722 569.278 436.778 568.222 436.333 568.667z"/>
<path style="fill:#f073aa; stroke:none;" d="M418 569L418 575C418.951 572.715 418.951 571.285 418 569z"/>
<path style="fill:#f07cad; stroke:none;" d="M424 569C426.332 569.984 428.457 569.981 431 570C428.668 569.016 426.543 569.019 424 569z"/>
<path style="fill:#b15848; stroke:none;" d="M487 570L488 571L487 570z"/>
<path style="fill:#c95b6b; stroke:none;" d="M503.333 570.667C503.278 570.722 503.222 571.778 503.667 571.333C503.722 571.278 503.778 570.222 503.333 570.667M502.333 574.667C502.278 574.722 502.222 575.778 502.667 575.333C502.722 575.278 502.778 574.222 502.333 574.667z"/>
<path style="fill:#b15848; stroke:none;" d="M501.333 578.667C501.278 578.722 501.222 579.778 501.667 579.333C501.722 579.278 501.778 578.222 501.333 578.667z"/>
<path style="fill:#ffb8d3; stroke:none;" d="M150.667 579.333C150.222 579.778 151.278 579.722 151.333 579.667C151.778 579.222 150.722 579.278 150.667 579.333z"/>
<path style="fill:#ffc3e1; stroke:none;" d="M803 579L803 586C804.237 583.354 804.459 581.526 803 579z"/>
<path style="fill:#ffafd3; stroke:none;" d="M153.667 580.333C153.222 580.778 154.278 580.722 154.333 580.667C154.778 580.222 153.722 580.278 153.667 580.333z"/>
<path style="fill:#b15848; stroke:none;" d="M447 581L448 582L447 581z"/>
<path style="fill:#ffc3e1; stroke:none;" d="M164 583C165.139 584.015 165.612 584.309 167 585C166.02 583.217 166.092 583.406 164 583z"/>
<path style="fill:#b15848; stroke:none;" d="M500 583L500 586C500.696 584.446 500.696 584.554 500 583z"/>
<path style="fill:#ffadc4; stroke:none;" d="M193 623C180.696 617.426 164.517 612.324 167.326 595C167.945 591.185 169.619 587.581 171 584C161.718 585.544 162.578 604.336 165.769 610.996C170.669 621.225 182.931 622.993 193 623z"/>
<path style="fill:#ffd6e1; stroke:none;" d="M165 586L165 589C165.696 587.446 165.696 587.554 165 586z"/>
<path style="fill:#f073aa; stroke:none;" d="M391 588L391 593C391.83 590.969 391.83 590.03 391 588z"/>
<path style="fill:#b15848; stroke:none;" d="M451 589L452 590L451 589M499 589L499 594C499.83 591.969 499.83 591.031 499 589z"/>
<path style="fill:#ffd6e1; stroke:none;" d="M164 590L164 593C164.696 591.446 164.696 591.554 164 590z"/>
<path style="fill:#b15848; stroke:none;" d="M452 591L453 592L452 591z"/>
<path style="fill:#ffd6e1; stroke:none;" d="M163 595L163 606C164.431 602.59 164.431 598.41 163 595z"/>
<path style="fill:#f073aa; stroke:none;" d="M516 595L516 599C516.71 597.24 516.71 596.76 516 595z"/>
<path style="fill:#c95b6b; stroke:none;" d="M454.333 596.667C454.278 596.722 454.222 597.778 454.667 597.333C454.722 597.278 454.778 596.222 454.333 596.667M455.333 599.667C455.278 599.722 455.222 600.778 455.667 600.333C455.722 600.278 455.778 599.222 455.333 599.667z"/>
<path style="fill:#b15848; stroke:none;" d="M498 601L498 623C500.219 617.713 500.219 606.287 498 601M456.333 602.667C456.278 602.722 456.222 603.778 456.667 603.333C456.722 603.278 456.778 602.222 456.333 602.667z"/>
<path style="fill:#ffc3e1; stroke:none;" d="M727.333 605.667C727.278 605.722 727.222 606.778 727.667 606.333C727.722 606.278 727.778 605.222 727.333 605.667z"/>
<path style="fill:#b15848; stroke:none;" d="M457.333 606.667C457.278 606.722 457.222 607.778 457.667 607.333C457.722 607.278 457.778 606.222 457.333 606.667z"/>
<path style="fill:#ffd6e1; stroke:none;" d="M164.333 607.667C164.278 607.722 164.222 608.778 164.667 608.333C164.722 608.278 164.778 607.222 164.333 607.667z"/>
<path style="fill:#b15848; stroke:none;" d="M458 610L458 613C458.696 611.446 458.696 611.554 458 610z"/>
<path style="fill:#ffc3e1; stroke:none;" d="M775.667 612.333C775.222 612.778 776.278 612.722 776.333 612.667C776.778 612.222 775.722 612.278 775.667 612.333z"/>
<path style="fill:#b15848; stroke:none;" d="M459 615L459 619C459.71 617.24 459.71 616.76 459 615z"/>
<path style="fill:#ffc3e1; stroke:none;" d="M766.667 615.333C766.222 615.778 767.278 615.722 767.333 615.667C767.778 615.222 766.722 615.278 766.667 615.333M744 616C745.248 616.685 745.548 616.749 747 617C745.752 616.315 745.452 616.251 744 616M760 616C761.506 616.683 762.315 616.826 764 617C762.494 616.317 761.685 616.174 760 616z"/>
<path style="fill:#ffadc4; stroke:none;" d="M218 619C222.134 624.524 226.427 629.471 233 632C229.405 627.299 223.742 620.684 218 619z"/>
<path style="fill:#ffd6e1; stroke:none;" d="M178.667 621.333C178.222 621.778 179.278 621.722 179.333 621.667C179.778 621.222 178.722 621.278 178.667 621.333M182.667 622.333C182.222 622.778 183.278 622.722 183.333 622.667C183.778 622.222 182.722 622.278 182.667 622.333z"/>
<path style="fill:#ffc3e1; stroke:none;" d="M210.667 622.333C210.222 622.778 211.278 622.722 211.333 622.667C211.778 622.222 210.722 622.278 210.667 622.333z"/>
<path style="fill:#b15848; stroke:none;" d="M460 622L460 627C460.83 624.969 460.83 624.03 460 622z"/>
<path style="fill:#ffc3e1; stroke:none;" d="M187 623C192.715 625.398 200.831 624 207 624C201.285 621.602 193.169 623 187 623z"/>
<path style="fill:#e15e8f; stroke:none;" d="M650 623C641.593 634.693 631.204 644.864 616 645C629.725 653.624 653.152 648.423 667 642.431C672.844 639.902 677.967 636.725 681 631C669.473 630.762 660.695 626.081 650 623z"/>
<path style="fill:#f0aec7; stroke:none;" d="M394 624L395 625L394 624z"/>
<path style="fill:#f073aa; stroke:none;" d="M339 625C340.506 625.683 341.315 625.826 343 626C341.494 625.317 340.685 625.174 339 625z"/>
<path style="fill:#f0aec7; stroke:none;" d="M395 626L396 627L395 626z"/>
<path style="fill:#ffc3e1; stroke:none;" d="M703.667 626.333C703.222 626.778 704.278 626.722 704.333 626.667C704.778 626.222 703.722 626.278 703.667 626.333M700.667 627.333C700.222 627.778 701.278 627.722 701.333 627.667C701.778 627.222 700.722 627.278 700.667 627.333M697.667 628.333C697.222 628.778 698.278 628.722 698.333 628.667C698.778 628.222 697.722 628.278 697.667 628.333M691 629C692.506 629.683 693.315 629.826 695 630C693.494 629.317 692.685 629.174 691 629z"/>
<path style="fill:#f073aa; stroke:none;" d="M674 630C676.613 631.098 679.165 630.993 682 631C679.387 629.902 676.836 630.007 674 630z"/>
<path style="fill:#ffc3e1; stroke:none;" d="M682 630C684.052 630.874 685.747 630.953 688 631C685.948 630.126 684.253 630.047 682 630z"/>
<path style="fill:#f0aec7; stroke:none;" d="M399 632L400 633L399 632z"/>
<path style="fill:#b15848; stroke:none;" d="M461 634L461 651C462.883 646.514 462.883 638.486 461 634M499 634L499 641C500.059 638.466 500.059 636.534 499 634z"/>
<path style="fill:#f0aec7; stroke:none;" d="M439.333 635.667C439.278 635.722 439.222 636.778 439.667 636.333C439.722 636.278 439.778 635.222 439.333 635.667z"/>
<path style="fill:#f073aa; stroke:none;" d="M272 637C274.052 637.874 275.747 637.953 278 638C275.948 637.126 274.253 637.047 272 637z"/>
<path style="fill:#f0aec7; stroke:none;" d="M675 637L676 638L675 637z"/>
<path style="fill:#ffc3e1; stroke:none;" d="M245 638C246.248 638.685 246.548 638.749 248 639C246.752 638.315 246.452 638.251 245 638M264 638C265.248 638.685 265.548 638.749 267 639C265.752 638.315 265.452 638.251 264 638z"/>
<path style="fill:#f0aec7; stroke:none;" d="M405 638L406 639L405 638M440 638L441 639L440 638z"/>
<path style="fill:#ffc3e1; stroke:none;" d="M254 639C255.248 639.685 255.548 639.749 257 640C255.752 639.315 255.452 639.251 254 639z"/>
<path style="fill:#f0aec7; stroke:none;" d="M408 640L409 641L408 640M410 641L411 642L410 641M429 641L430 642L429 641z"/>
<path style="fill:#bfa87f; stroke:none;" d="M499.333 641.667C499.278 641.722 499.222 642.778 499.667 642.333C499.722 642.278 499.778 641.222 499.333 641.667z"/>
<path style="fill:#f0aec7; stroke:none;" d="M668.667 641.333C668.222 641.778 669.278 641.722 669.333 641.667C669.778 641.222 668.722 641.278 668.667 641.333M413 642L414 643L413 642z"/>
<path style="fill:#f7d7e3; stroke:none;" d="M426.667 642.333C426.222 642.778 427.278 642.722 427.333 642.667C427.778 642.222 426.722 642.278 426.667 642.333z"/>
<path style="fill:#f0aec7; stroke:none;" d="M504.333 642.667C504.278 642.722 504.222 643.778 504.667 643.333C504.722 643.278 504.778 642.222 504.333 642.667M416 643C418.613 644.098 421.165 643.993 424 644C421.387 642.902 418.836 643.007 416 643z"/>
<path style="fill:#f7d7e3; stroke:none;" d="M664.667 643.333C664.222 643.778 665.278 643.722 665.333 643.667C665.778 643.222 664.722 643.278 664.667 643.333z"/>
<path style="fill:#ffc3e1; stroke:none;" d="M607.667 644.333C607.222 644.778 608.278 644.722 608.333 644.667C608.778 644.222 607.722 644.278 607.667 644.333z"/>
<path style="fill:#f7d7e3; stroke:none;" d="M661.667 644.333C661.222 644.778 662.278 644.722 662.333 644.667C662.778 644.222 661.722 644.278 661.667 644.333z"/>
<path style="fill:#f0aec7; stroke:none;" d="M447 645L448 646L447 645z"/>
<path style="fill:#f7d7e3; stroke:none;" d="M658.667 645.333C658.222 645.778 659.278 645.722 659.333 645.667C659.778 645.222 658.722 645.278 658.667 645.333z"/>
<path style="fill:#f0aec7; stroke:none;" d="M366 646L367 647L366 646z"/>
<path style="fill:#e986ab; stroke:none;" d="M617.667 646.333C617.222 646.778 618.278 646.722 618.333 646.667C618.778 646.222 617.722 646.278 617.667 646.333z"/>
<path style="fill:#f0aec7; stroke:none;" d="M654.667 646.333C654.222 646.778 655.278 646.722 655.333 646.667C655.778 646.222 654.722 646.278 654.667 646.333M277 647L278 648L277 647z"/>
<path style="fill:#e986ab; stroke:none;" d="M620.667 647.333C620.222 647.778 621.278 647.722 621.333 647.667C621.778 647.222 620.722 647.278 620.667 647.333z"/>
<path style="fill:#f0aec7; stroke:none;" d="M649.667 647.333C649.222 647.778 650.278 647.722 650.333 647.667C650.778 647.222 649.722 647.278 649.667 647.333M453 648L454 649L453 648M624 648C625.248 648.685 625.548 648.749 627 649C625.752 648.315 625.452 648.251 624 648M642 648C643.506 648.683 644.315 648.826 646 649C644.494 648.317 643.685 648.174 642 648M361 649L362 650L361 649z"/>
<path style="fill:#e986ab; stroke:none;" d="M455.667 649.333C455.222 649.778 456.278 649.722 456.333 649.667C456.778 649.222 455.722 649.278 455.667 649.333z"/>
<path style="fill:#f0aec7; stroke:none;" d="M507 649L508 650L507 649M604 649L605 650L604 649M283 650L284 651L283 650M359 650L360 651L359 650M458.667 650.333C458.222 650.778 459.278 650.722 459.333 650.667C459.778 650.222 458.722 650.278 458.667 650.333z"/>
<path style="fill:#e986ab; stroke:none;" d="M285.667 651.333C285.222 651.778 286.278 651.722 286.333 651.667C286.778 651.222 285.722 651.278 285.667 651.333z"/>
<path style="fill:#bfa87f; stroke:none;" d="M461 651L461 664C462.591 660.209 462.591 654.791 461 651z"/>
<path style="fill:#e986ab; stroke:none;" d="M288.667 652.333C288.222 652.778 289.278 652.722 289.333 652.667C289.778 652.222 288.722 652.278 288.667 652.333z"/>
<path style="fill:#f7d7e3; stroke:none;" d="M354.667 652.333C354.222 652.778 355.278 652.722 355.333 652.667C355.778 652.222 354.722 652.278 354.667 652.333z"/>
<path style="fill:#e986ab; stroke:none;" d="M291.667 653.333C291.222 653.778 292.278 653.722 292.333 653.667C292.778 653.222 291.722 653.278 291.667 653.333z"/>
<path style="fill:#f0aec7; stroke:none;" d="M351.667 653.333C351.222 653.778 352.278 653.722 352.333 653.667C352.778 653.222 351.722 653.278 351.667 653.333z"/>
<path style="fill:#ccb47f; stroke:none;" d="M500 653L500 674C502.153 668.869 502.153 658.131 500 653z"/>
<path style="fill:#e986ab; stroke:none;" d="M294.667 654.333C294.222 654.778 295.278 654.722 295.333 654.667C295.778 654.222 294.722 654.278 294.667 654.333z"/>
<path style="fill:#f0aec7; stroke:none;" d="M348.667 654.333C348.222 654.778 349.278 654.722 349.333 654.667C349.778 654.222 348.722 654.278 348.667 654.333z"/>
<path style="fill:#e986ab; stroke:none;" d="M298.667 655.333C298.222 655.778 299.278 655.722 299.333 655.667C299.778 655.222 298.722 655.278 298.667 655.333z"/>
<path style="fill:#f0aec7; stroke:none;" d="M345.667 655.333C345.222 655.778 346.278 655.722 346.333 655.667C346.778 655.222 345.722 655.278 345.667 655.333M302.667 656.333C302.222 656.778 303.278 656.722 303.333 656.667C303.778 656.222 302.722 656.278 302.667 656.333M341.667 656.333C341.222 656.778 342.278 656.722 342.333 656.667C342.778 656.222 341.722 656.278 341.667 656.333M307 657C308.248 657.685 308.548 657.749 310 658C308.752 657.315 308.452 657.251 307 657M335 657C336.248 657.685 336.548 657.749 338 658C336.752 657.315 336.452 657.251 335 657M515 657L516 658L515 657M596 657L597 658L596 657M315 658C319.724 659.982 325.91 659 331 659C326.276 657.018 320.09 658 315 658M593 659L594 660L593 659M591 660L592 661L591 660M521 661L522 662L521 661M523 662L524 663L523 662M587 662L588 663L587 662M525 663L526 664L525 663M585 663L586 664L585 663z"/>
<path style="fill:#a68340; stroke:none;" d="M461 664L462 665L461 664z"/>
<path style="fill:#f0aec7; stroke:none;" d="M527 664L528 665L527 664z"/>
<path style="fill:#f7d7e3; stroke:none;" d="M582.667 664.333C582.222 664.778 583.277 664.722 583.333 664.667C583.778 664.222 582.722 664.278 582.667 664.333z"/>
<path style="fill:#996a00; stroke:none;" d="M461 665L460 744C456.52 740.017 453.343 736.068 449 733C447.604 735.079 445.277 737.452 444.873 740.002C443.982 745.633 451.38 754.599 453.302 760C456.566 769.173 457.222 778.348 456.985 788C456.701 799.592 455.118 811.551 453.246 823C452.201 829.393 451.541 836.125 448.623 842C443.484 852.344 432.645 860.189 429 871C441.37 869.99 452.419 861.491 465 862.105C472.411 862.467 480.562 865.798 487 869.312C491.378 871.703 495.088 874.846 500 876L494 859C506.57 864.235 516.941 870.396 531 871C526.728 864.936 520.008 860.61 516.532 854C512.955 847.197 510.75 839.277 508.333 832C503.615 817.793 499.291 802.868 497.289 788C496.135 779.435 496.992 770.366 495 762C492.37 767.428 490.597 774.149 489 780C484.261 773.606 477.737 767.667 475.108 760C473.25 754.582 474.72 749.5 474.961 744C475.396 734.054 475.115 723.955 474.996 714C474.922 707.786 474.24 698.097 466 701C465.058 694.597 462.798 688.495 462.17 682C461.637 676.496 463.158 670.143 461 665z"/>
<path style="fill:#e986ab; stroke:none;" d="M529.667 665.333C529.222 665.778 530.278 665.722 530.333 665.667C530.778 665.222 529.722 665.278 529.667 665.333z"/>
<path style="fill:#f0aec7; stroke:none;" d="M579.667 665.333C579.222 665.778 580.278 665.722 580.333 665.667C580.778 665.222 579.722 665.278 579.667 665.333M532 666L533 667L532 666M576.667 666.333C576.222 666.778 577.278 666.722 577.333 666.667C577.778 666.222 576.722 666.278 576.667 666.333M535 667L536 668L535 667M572.667 667.333C572.222 667.778 573.278 667.722 573.333 667.667C573.778 667.222 572.722 667.278 572.667 667.333z"/>
<path style="fill:#e986ab; stroke:none;" d="M538.667 668.333C538.222 668.778 539.278 668.722 539.333 668.667C539.778 668.222 538.722 668.278 538.667 668.333z"/>
<path style="fill:#f0aec7; stroke:none;" d="M568.667 668.333C568.222 668.778 569.278 668.722 569.333 668.667C569.778 668.222 568.722 668.278 568.667 668.333M542.667 669.333C542.222 669.778 543.278 669.722 543.333 669.667C543.778 669.222 542.722 669.278 542.667 669.333M563 669C564.248 669.685 564.548 669.749 566 670C564.752 669.315 564.452 669.251 563 669M547 670C548.769 670.779 550.036 670.912 552 671C550.231 670.221 548.964 670.088 547 670M555 670C556.769 670.779 558.036 670.912 560 671C558.231 670.221 556.964 670.088 555 670z"/>
<path style="fill:#dfd3bf; stroke:none;" d="M504 671L505 672L504 671M503 672L504 673L503 672z"/>
<path style="fill:#e5dabf; stroke:none;" d="M500 674L501 675L500 674z"/>
<path style="fill:#a07d40; stroke:none;" d="M502 674L503 675L502 674z"/>
<path style="fill:#ffffff; stroke:none;" d="M500 675L501 676L500 675z"/>
<path style="fill:#bfa87f; stroke:none;" d="M501 675L502 676L501 675M506 675L506 678C506.696 676.446 506.696 676.554 506 675z"/>
<path style="fill:#dfd3bf; stroke:none;" d="M500 676L501 677L500 676z"/>
<path style="fill:#a07d40; stroke:none;" d="M500 677L501 678L500 677M506 678L507 679L506 678z"/>
<path style="fill:#dfd3bf; stroke:none;" d="M507.333 680.667C507.278 680.722 507.222 681.778 507.667 681.333C507.722 681.278 507.778 680.222 507.333 680.667M506 682L507 683L506 682M505 683L506 684L505 683z"/>
<path style="fill:#bfa87f; stroke:none;" d="M504 684L505 685L504 684z"/>
<path style="fill:#a07d40; stroke:none;" d="M503 685L504 686L503 685z"/>
<path style="fill:#dfd3bf; stroke:none;" d="M503 686L504 687L503 686z"/>
<path style="fill:#bfa87f; stroke:none;" d="M502 687L503 688L502 687M501 689L502 690L501 689M500 691L501 692L500 691z"/>
<path style="fill:#dfd3bf; stroke:none;" d="M500 692L501 693L500 692z"/>
<path style="fill:#bfa87f; stroke:none;" d="M499 694L500 695L499 694z"/>
<path style="fill:#dfd3bf; stroke:none;" d="M499 695L500 696L499 695z"/>
<path style="fill:#a07d40; stroke:none;" d="M498 697L499 698L498 697z"/>
<path style="fill:#bfa87f; stroke:none;" d="M498 698L499 699L498 698z"/>
<path style="fill:#dfd3bf; stroke:none;" d="M498 699L499 700L498 699z"/>
<path style="fill:#a07d40; stroke:none;" d="M497 701L498 702L497 701z"/>
<path style="fill:#bfa87f; stroke:none;" d="M497.333 702.667C497.278 702.722 497.222 703.778 497.667 703.333C497.722 703.278 497.778 702.222 497.333 702.667z"/>
<path style="fill:#e5dabf; stroke:none;" d="M460 705L461 706L460 705z"/>
<path style="fill:#ccb47f; stroke:none;" d="M460 706L460 724C461.952 719.349 461.952 710.651 460 706z"/>
<path style="fill:#bfa87f; stroke:none;" d="M496 707L496 711C496.71 709.24 496.71 708.759 496 707z"/>
<path style="fill:#8d5e00; stroke:none;" d="M475 720L475 736C476.812 731.681 476.812 724.319 475 720z"/>
<path style="fill:#b38f40; stroke:none;" d="M460 724L461 725L460 724z"/>
<path style="fill:#e5dabf; stroke:none;" d="M449 732L450 733L449 732M448 733L449 734L448 733z"/>
<path style="fill:#b38f40; stroke:none;" d="M450 733L451 734L450 733M448 734L449 735L448 734M451 734L452 735L451 734M447 735L448 736L447 735z"/>
<path style="fill:#e5dabf; stroke:none;" d="M452 735L453 736L452 735z"/>
<path style="fill:#b38f40; stroke:none;" d="M446 736L447 737L446 736z"/>
<path style="fill:#e5dabf; stroke:none;" d="M453 736L454 737L453 736z"/>
<path style="fill:#b38f40; stroke:none;" d="M445 737L446 738L445 737z"/>
<path style="fill:#e5dabf; stroke:none;" d="M454 737L455 738L454 737z"/>
<path style="fill:#ccb47f; stroke:none;" d="M444 738L445 739L444 738z"/>
<path style="fill:#e5dabf; stroke:none;" d="M455 738L456 739L455 738M443 739L444 740L443 739M456 739L457 740L456 739z"/>
<path style="fill:#b38f40; stroke:none;" d="M443 740L444 741L443 740z"/>
<path style="fill:#e5dabf; stroke:none;" d="M457 740L458 741L457 740M443 741L444 742L443 741z"/>
<path style="fill:#b38f40; stroke:none;" d="M457 741L458 742L457 741z"/>
<path style="fill:#ccb47f; stroke:none;" d="M444 742L445 743L444 742M458 742L459 743L458 742z"/>
<path style="fill:#b38f40; stroke:none;" d="M445 743L446 744L445 743M459 743L460 744L459 743z"/>
<path style="fill:#e5dabf; stroke:none;" d="M445 744L446 745L445 744z"/>
<path style="fill:#ccb47f; stroke:none;" d="M446 745L447 746L446 745M447 747L448 748L447 747z"/>
<path style="fill:#e5dabf; stroke:none;" d="M448 749L449 750L448 749z"/>
<path style="fill:#b38f40; stroke:none;" d="M449 750L450 751L449 750z"/>
<path style="fill:#e5dabf; stroke:none;" d="M449 751L450 752L449 751z"/>
<path style="fill:#ccb47f; stroke:none;" d="M450 753L451 754L450 753z"/>
<path style="fill:#a07d40; stroke:none;" d="M495 754L496 755L495 754z"/>
<path style="fill:#ccb47f; stroke:none;" d="M451 755L452 756L451 755M495 755L495 763C496.161 760.23 496.161 757.77 495 755z"/>
<path style="fill:#b38f40; stroke:none;" d="M452 757L453 758L452 757z"/>
<path style="fill:#e5dabf; stroke:none;" d="M452 758L453 759L452 758z"/>
<path style="fill:#ccb47f; stroke:none;" d="M453 760L454 761L453 760z"/>
<path style="fill:#e5dabf; stroke:none;" d="M453 761L454 762L453 761z"/>
<path style="fill:#ccb47f; stroke:none;" d="M454.333 763.667C454.278 763.722 454.222 764.778 454.667 764.333C454.722 764.278 454.778 763.222 454.333 763.667z"/>
<path style="fill:#b38f40; stroke:none;" d="M495 763L496 764L495 763z"/>
<path style="fill:#ccb47f; stroke:none;" d="M455.333 767.667C455.278 767.722 455.222 768.778 455.667 768.333C455.722 768.278 455.778 767.222 455.333 767.667M456 772L456 780C457.161 777.23 457.161 774.77 456 772M496 775L496 781C496.951 778.715 496.951 777.285 496 775z"/>
<path style="fill:#e5dabf; stroke:none;" d="M456 781L457 782L456 781z"/>
<path style="fill:#ccb47f; stroke:none;" d="M456 782L456 794C457.512 790.396 457.512 785.604 456 782z"/>
<path style="fill:#e5dabf; stroke:none;" d="M497 785L498 786L497 785z"/>
<path style="fill:#ccb47f; stroke:none;" d="M497 786L497 789C497.696 787.446 497.696 787.554 497 786z"/>
<path style="fill:#b38f40; stroke:none;" d="M497 789L498 790L497 789z"/>
<path style="fill:#e5dabf; stroke:none;" d="M498 792L499 793L498 792z"/>
<path style="fill:#ccb47f; stroke:none;" d="M498.333 793.667C498.278 793.722 498.222 794.778 498.667 794.333C498.722 794.278 498.778 793.222 498.333 793.667z"/>
<path style="fill:#e5dabf; stroke:none;" d="M499 797L500 798L499 797z"/>
<path style="fill:#ccb47f; stroke:none;" d="M499.333 798.667C499.278 798.722 499.222 799.778 499.667 799.333C499.722 799.278 499.778 798.222 499.333 798.667z"/>
<path style="fill:#e5dabf; stroke:none;" d="M455 800L456 801L455 800z"/>
<path style="fill:#ccb47f; stroke:none;" d="M455 801L455 805C455.71 803.24 455.71 802.76 455 801z"/>
<path style="fill:#e5dabf; stroke:none;" d="M500 802L501 803L500 802z"/>
<path style="fill:#ccb47f; stroke:none;" d="M500 803L501 804L500 803z"/>
<path style="fill:#b38f40; stroke:none;" d="M500 804L501 805L500 804M455 805L456 806L455 805z"/>
<path style="fill:#e5dabf; stroke:none;" d="M501 806L502 807L501 806z"/>
<path style="fill:#ccb47f; stroke:none;" d="M501 807L502 808L501 807z"/>
<path style="fill:#b38f40; stroke:none;" d="M501 808L502 809L501 808z"/>
<path style="fill:#e5dabf; stroke:none;" d="M454 810L455 811L454 810M502 810L503 811L502 810z"/>
<path style="fill:#ccb47f; stroke:none;" d="M454 811L454 814C454.696 812.446 454.696 812.554 454 811M502 811L503 812L502 811z"/>
<path style="fill:#b38f40; stroke:none;" d="M502 812L503 813L502 812M454 814L455 815L454 814z"/>
<path style="fill:#e5dabf; stroke:none;" d="M503 814L504 815L503 814z"/>
<path style="fill:#ccb47f; stroke:none;" d="M503 815L504 816L503 815z"/>
<path style="fill:#e5dabf; stroke:none;" d="M453 818L454 819L453 818z"/>
<path style="fill:#ccb47f; stroke:none;" d="M504 818L505 819L504 818M453 819L453 822C453.696 820.446 453.696 820.554 453 819z"/>
<path style="fill:#b38f40; stroke:none;" d="M504 819L505 820L504 819z"/>
<path style="fill:#e5dabf; stroke:none;" d="M505 821L506 822L505 821z"/>
<path style="fill:#ccb47f; stroke:none;" d="M505 822L506 823L505 822z"/>
<path style="fill:#e5dabf; stroke:none;" d="M506 824L507 825L506 824z"/>
<path style="fill:#ccb47f; stroke:none;" d="M452 825L452 828C452.696 826.446 452.696 826.554 452 825M506 825L507 826L506 825z"/>
<path style="fill:#b38f40; stroke:none;" d="M506 826L507 827L506 826z"/>
<path style="fill:#ccb47f; stroke:none;" d="M507 828L508 829L507 828z"/>
<path style="fill:#b38f40; stroke:none;" d="M507 829L508 830L507 829z"/>
<path style="fill:#ccb47f; stroke:none;" d="M451 831L451 834C451.696 832.446 451.696 832.554 451 831M508 831L509 832L508 831z"/>
<path style="fill:#b38f40; stroke:none;" d="M508 832L509 833L508 832z"/>
<path style="fill:#ccb47f; stroke:none;" d="M509 834L510 835L509 834z"/>
<path style="fill:#b38f40; stroke:none;" d="M509 835L510 836L509 835z"/>
<path style="fill:#e5dabf; stroke:none;" d="M450 836L451 837L450 836z"/>
<path style="fill:#ccb47f; stroke:none;" d="M450 837L451 838L450 837M510 837L511 838L510 837z"/>
<path style="fill:#b38f40; stroke:none;" d="M510 838L511 839L510 838z"/>
<path style="fill:#e5dabf; stroke:none;" d="M449 839L450 840L449 839z"/>
<path style="fill:#b38f40; stroke:none;" d="M449 840L450 841L449 840z"/>
<path style="fill:#ccb47f; stroke:none;" d="M511 840L512 841L511 840z"/>
<path style="fill:#e5dabf; stroke:none;" d="M448 841L449 842L448 841z"/>
<path style="fill:#b38f40; stroke:none;" d="M511 841L512 842L511 841M448 842L449 843L448 842z"/>
<path style="fill:#e5dabf; stroke:none;" d="M447 843L448 844L447 843z"/>
<path style="fill:#ccb47f; stroke:none;" d="M512 843L513 844L512 843z"/>
<path style="fill:#b38f40; stroke:none;" d="M447 844L448 845L447 844z"/>
<path style="fill:#e5dabf; stroke:none;" d="M446 845L447 846L446 845M513 845L514 846L513 845z"/>
<path style="fill:#ccb47f; stroke:none;" d="M513 846L514 847L513 846z"/>
<path style="fill:#b38f40; stroke:none;" d="M445 847L446 848L445 847z"/>
<path style="fill:#e5dabf; stroke:none;" d="M444 848L445 849L444 848z"/>
<path style="fill:#ccb47f; stroke:none;" d="M514 848L515 849L514 848z"/>
<path style="fill:#b38f40; stroke:none;" d="M514 849L515 850L514 849M443 850L444 851L443 850z"/>
<path style="fill:#e5dabf; stroke:none;" d="M515 850L516 851L515 850M442 851L443 852L442 851z"/>
<path style="fill:#ccb47f; stroke:none;" d="M515 851L516 852L515 851z"/>
<path style="fill:#b38f40; stroke:none;" d="M441 853L442 854L441 853z"/>
<path style="fill:#ccb47f; stroke:none;" d="M516 853L517 854L516 853M440 854L441 855L440 854z"/>
<path style="fill:#b38f40; stroke:none;" d="M516 854L517 855L516 854z"/>
<path style="fill:#e5dabf; stroke:none;" d="M439 855L440 856L439 855M517 855L518 856L517 855z"/>
<path style="fill:#b38f40; stroke:none;" d="M517 856L518 857L517 856M438 857L439 858L438 857z"/>
<path style="fill:#ccb47f; stroke:none;" d="M518 857L519 858L518 857M437 858L438 859L437 858z"/>
<path style="fill:#b38f40; stroke:none;" d="M493 858L494 859L493 858z"/>
<path style="fill:#e5dabf; stroke:none;" d="M519 858L520 859L519 858M436 859L437 860L436 859z"/>
<path style="fill:#ffffff; stroke:none;" d="M494 859L495 860L494 859z"/>
<path style="fill:#ccb47f; stroke:none;" d="M495 859L496 860L495 859z"/>
<path style="fill:#e5dabf; stroke:none;" d="M520 859L521 860L520 859M435 860L436 861L435 860M494 860L495 861L494 860M496 860L497 861L496 860z"/>
<path style="fill:#b38f40; stroke:none;" d="M497 860L498 861L497 860z"/>
<path style="fill:#e5dabf; stroke:none;" d="M521 860L522 861L521 860M434 861L435 862L434 861z"/>
<path style="fill:#b38f40; stroke:none;" d="M494 861L495 862L494 861z"/>
<path style="fill:#e5dabf; stroke:none;" d="M498 861L499 862L498 861z"/>
<path style="fill:#b38f40; stroke:none;" d="M499 861L500 862L499 861z"/>
<path style="fill:#e5dabf; stroke:none;" d="M522 861L523 862L522 861z"/>
<path style="fill:#ccb47f; stroke:none;" d="M459 862C462.163 863.327 465.586 863 469 863C465.837 861.673 462.414 862 459 862z"/>
<path style="fill:#e5dabf; stroke:none;" d="M495 862L496 863L495 862M500 862L501 863L500 862z"/>
<path style="fill:#b38f40; stroke:none;" d="M501 862L502 863L501 862z"/>
<path style="fill:#e5dabf; stroke:none;" d="M523 862L524 863L523 862z"/>
<path style="fill:#b38f40; stroke:none;" d="M433 863L434 864L433 863M454 863L455 864L454 863z"/>
<path style="fill:#ccb47f; stroke:none;" d="M455 863L456 864L455 863z"/>
<path style="fill:#e5dabf; stroke:none;" d="M456 863L457 864L456 863M471 863L472 864L471 863z"/>
<path style="fill:#ccb47f; stroke:none;" d="M472 863L473 864L472 863M495 863L496 864L495 863z"/>
<path style="fill:#e5dabf; stroke:none;" d="M502 863L503 864L502 863z"/>
<path style="fill:#b38f40; stroke:none;" d="M503 863L504 864L503 863z"/>
<path style="fill:#e5dabf; stroke:none;" d="M524 863L525 864L524 863z"/>
<path style="fill:#b38f40; stroke:none;" d="M432 864L433 865L432 864z"/>
<path style="fill:#ccb47f; stroke:none;" d="M451.667 864.333C451.222 864.778 452.278 864.722 452.333 864.667C452.778 864.222 451.722 864.278 451.667 864.333z"/>
<path style="fill:#e5dabf; stroke:none;" d="M474 864L475 865L474 864z"/>
<path style="fill:#ccb47f; stroke:none;" d="M475 864L476 865L475 864M504 864L505 865L504 864z"/>
<path style="fill:#e5dabf; stroke:none;" d="M525 864L526 865L525 864z"/>
<path style="fill:#b38f40; stroke:none;" d="M431 865L432 866L431 865M448 865L449 866L448 865z"/>
<path style="fill:#e5dabf; stroke:none;" d="M449 865L450 866L449 865M477 865L478 866L477 865z"/>
<path style="fill:#ccb47f; stroke:none;" d="M478 865L479 866L478 865M496 865L497 866L496 865M506 865L507 866L506 865M526 865L527 866L526 865M430 866L431 867L430 866z"/>
<path style="fill:#b38f40; stroke:none;" d="M445 866L446 867L445 866z"/>
<path style="fill:#ccb47f; stroke:none;" d="M446 866L447 867L446 866z"/>
<path style="fill:#e5dabf; stroke:none;" d="M480 866L481 867L480 866z"/>
<path style="fill:#b38f40; stroke:none;" d="M481 866L482 867L481 866M496 866L497 867L496 866z"/>
<path style="fill:#e5dabf; stroke:none;" d="M508 866L509 867L508 866z"/>
<path style="fill:#b38f40; stroke:none;" d="M509 866L510 867L509 866M527 866L528 867L527 866z"/>
<path style="fill:#e5dabf; stroke:none;" d="M429 867L430 868L429 867z"/>
<path style="fill:#ccb47f; stroke:none;" d="M443 867L444 868L443 867z"/>
<path style="fill:#e5dabf; stroke:none;" d="M444 867L445 868L444 867M482 867L483 868L482 867z"/>
<path style="fill:#ccb47f; stroke:none;" d="M483 867L484 868L483 867z"/>
<path style="fill:#e5dabf; stroke:none;" d="M497 867L498 868L497 867M510 867L511 868L510 867z"/>
<path style="fill:#ccb47f; stroke:none;" d="M511 867L512 868L511 867z"/>
<path style="fill:#b38f40; stroke:none;" d="M528 867L529 868L528 867M429 868L430 869L429 868z"/>
<path style="fill:#ccb47f; stroke:none;" d="M440 868L441 869L440 868z"/>
<path style="fill:#e5dabf; stroke:none;" d="M441 868L442 869L441 868z"/>
<path style="fill:#ccb47f; stroke:none;" d="M485 868L486 869L485 868M497 868L498 869L497 868M514.667 868.333C514.222 868.778 515.278 868.722 515.333 868.667C515.778 868.222 514.722 868.278 514.667 868.333z"/>
<path style="fill:#b38f40; stroke:none;" d="M529 868L530 869L529 868z"/>
<path style="fill:#ccb47f; stroke:none;" d="M437 869L438 870L437 869z"/>
<path style="fill:#e5dabf; stroke:none;" d="M438 869L439 870L438 869z"/>
<path style="fill:#b38f40; stroke:none;" d="M487 869L488 870L487 869z"/>
<path style="fill:#ccb47f; stroke:none;" d="M518.667 869.333C518.222 869.778 519.278 869.722 519.333 869.667C519.778 869.222 518.722 869.278 518.667 869.333z"/>
<path style="fill:#b38f40; stroke:none;" d="M530 869L531 870L530 869z"/>
<path style="fill:#ccb47f; stroke:none;" d="M433.667 870.333C433.222 870.778 434.278 870.722 434.333 870.667C434.778 870.222 433.722 870.278 433.667 870.333z"/>
<path style="fill:#e5dabf; stroke:none;" d="M488 870L489 871L488 870z"/>
<path style="fill:#b38f40; stroke:none;" d="M489 870L490 871L489 870z"/>
<path style="fill:#e5dabf; stroke:none;" d="M498 870L499 871L498 870M522 870L523 871L522 870z"/>
<path style="fill:#ccb47f; stroke:none;" d="M523.667 870.333C523.222 870.778 524.278 870.722 524.333 870.667C524.778 870.222 523.722 870.278 523.667 870.333z"/>
<path style="fill:#b38f40; stroke:none;" d="M525 870L526 871L525 870z"/>
<path style="fill:#ccb47f; stroke:none;" d="M490 871L491 872L490 871M498 871L499 872L498 871z"/>
<path style="fill:#e5dabf; stroke:none;" d="M491 872L492 873L491 872z"/>
<path style="fill:#b38f40; stroke:none;" d="M492 872L493 873L492 872z"/>
<path style="fill:#ccb47f; stroke:none;" d="M493 873L494 874L493 873z"/>
<path style="fill:#e5dabf; stroke:none;" d="M499 873L500 874L499 873M494 874L495 875L494 874z"/>
<path style="fill:#b38f40; stroke:none;" d="M495 874L496 875L495 874z"/>
<path style="fill:#ccb47f; stroke:none;" d="M499 874L500 875L499 874M496 875L497 876L496 875M498.667 876.333C498.222 876.778 499.278 876.722 499.333 876.667C499.778 876.222 498.722 876.278 498.667 876.333z"/>
<path style="fill:#e5e5e5; stroke:none;" d="M818 885C819.506 885.683 820.315 885.826 822 886C820.494 885.317 819.685 885.174 818 885z"/>
<path style="fill:#cccccc; stroke:none;" d="M822 885.599C800.186 886.569 801.497 919.384 823 918.74C844.563 918.094 843.911 884.624 822 885.599z"/>
<path style="fill:#e5e5e5; stroke:none;" d="M824 885C825.249 885.685 825.548 885.749 827 886C825.752 885.315 825.451 885.251 824 885M865 886C866.249 886.685 866.548 886.749 868 887L868 912C871.008 904.831 869 893.761 869 886L865 886M892 886C893.249 886.685 893.548 886.749 895 887C893.752 886.315 893.451 886.251 892 886z"/>
<path style="fill:#cccccc; stroke:none;" d="M865 887L865 895C862.164 893.805 859.133 892.583 856.044 893.757C850.117 896.009 849.508 905.393 853.514 909.682C856.919 913.328 863.5 911.755 868 912L868 887L865 887M892 887L892 912L895 912C895.119 908.248 895.8 906.056 898 903C900.275 907.806 902.385 911.556 908 912C906.514 908.859 902.493 904.589 902.867 901.002C903.131 898.465 905.62 896.026 907 894C901.606 894.407 898.735 897.309 895 901L895 887L892 887z"/>
<path style="fill:#e5e5e5; stroke:none;" d="M817.667 888.333C817.222 888.778 818.278 888.722 818.333 888.667C818.778 888.222 817.722 888.278 817.667 888.333z"/>
<path style="fill:#ffffff; stroke:none;" d="M819 888.534C801.573 892.691 808.421 919.638 826 915.606C843.835 911.515 836.571 884.342 819 888.534z"/>
<path style="fill:#e5e5e5; stroke:none;" d="M820 891C822.331 891.984 824.457 891.981 827 892C824.668 891.015 822.543 891.019 820 891z"/>
<path style="fill:#cccccc; stroke:none;" d="M831 905C828.061 905.49 824.012 909.42 821.225 908.079C816.913 906.005 817.545 897.753 822.094 896.341C824.859 895.483 828.941 898.761 832 899C827.399 887.412 812.524 891.517 814.19 904C815.613 914.666 828.369 914.961 831 905z"/>
<path style="fill:#e5e5e5; stroke:none;" d="M861.667 893.333C861.222 893.778 862.278 893.722 862.333 893.667C862.778 893.222 861.722 893.278 861.667 893.333M876.667 893.333C876.222 893.778 877.278 893.722 877.333 893.667C877.778 893.222 876.722 893.278 876.667 893.333z"/>
<path style="fill:#cccccc; stroke:none;" d="M873 899C877.793 897.709 880.765 894.741 884 900C880.887 900.712 875.904 901.186 873.603 903.589C871.629 905.65 871.498 910.01 874.318 911.397C878.061 913.238 884.836 911.903 889 912C887.589 907.479 888.549 899.118 885.972 895.514C882.179 890.208 874.457 894.156 873 899z"/>
<path style="fill:#e5e5e5; stroke:none;" d="M903 893C904.648 893.924 906.175 894.449 908 895C906.46 893.197 905.403 893.168 903 893M835.333 895.667C835.278 895.722 835.222 896.778 835.667 896.333C835.722 896.278 835.778 895.222 835.333 895.667M857 896C858.769 896.779 860.036 896.912 862 897C860.231 896.221 858.964 896.088 857 896M877 896C879.052 896.874 880.747 896.953 883 897C880.948 896.126 879.253 896.047 877 896z"/>
<path style="fill:#ffffff; stroke:none;" d="M857.318 898.032C852.153 901.359 856.531 911.977 862.566 907.968C867.762 904.516 863.508 894.046 857.318 898.032z"/>
<path style="fill:#e5e5e5; stroke:none;" d="M872.333 897.667C872.278 897.722 872.222 898.778 872.667 898.333C872.722 898.278 872.778 897.222 872.333 897.667M887 897L887 909C888.512 905.396 888.512 900.604 887 897M808 898L808 901C808.696 899.446 808.696 899.554 808 898M836.333 898.667C836.278 898.722 836.222 899.778 836.667 899.333C836.722 899.278 836.778 898.222 836.333 898.667M873 899C874.249 899.685 874.548 899.749 876 900C874.752 899.315 874.452 899.251 873 899M839 900L839 904C839.71 902.24 839.71 901.76 839 900M805 901L805 904C805.696 902.446 805.696 902.554 805 901M854 901L854 905C854.71 903.24 854.71 902.76 854 901M877.667 901.333C877.222 901.778 878.278 901.722 878.333 901.667C878.778 901.222 877.722 901.278 877.667 901.333M808 903L808 906C808.696 904.446 808.696 904.554 808 903M881 903C882.249 903.685 882.548 903.749 884 904C882.752 903.315 882.451 903.251 881 903M836.333 904.667C836.278 904.722 836.222 905.778 836.667 905.333C836.722 905.278 836.778 904.222 836.333 904.667z"/>
<path style="fill:#ffffff; stroke:none;" d="M876 909C880.302 908.859 882.462 908.182 884 904C879.69 904.105 876.809 904.343 876 909z"/>
<path style="fill:#e5e5e5; stroke:none;" d="M806.333 906.667C806.278 906.722 806.222 907.778 806.667 907.333C806.722 907.278 806.778 906.222 806.333 906.667M814.333 906.667C814.278 906.722 814.222 907.778 814.667 907.333C814.722 907.278 814.778 906.222 814.333 906.667M851.333 906.667C851.278 906.722 851.222 907.778 851.667 907.333C851.722 907.278 851.778 906.222 851.333 906.667M871.333 906.667C871.278 906.722 871.222 907.778 871.667 907.333C871.722 907.278 871.778 906.222 871.333 906.667M875.333 906.667C875.278 906.722 875.222 907.778 875.667 907.333C875.722 907.278 875.778 906.222 875.333 906.667M830.333 907.667C830.278 907.722 830.222 908.778 830.667 908.333C830.722 908.278 830.778 907.222 830.333 907.667M821 909C822.249 909.685 822.548 909.749 824 910C822.752 909.315 822.451 909.251 821 909M858 909C859.506 909.683 860.315 909.826 862 910C860.494 909.317 859.685 909.174 858 909M877 909C878.506 909.683 879.315 909.826 881 910C879.494 909.317 878.685 909.174 877 909M889.333 910.667C889.278 910.722 889.222 911.778 889.667 911.333C889.722 911.278 889.778 910.222 889.333 910.667M819.667 912.333C819.222 912.778 820.278 912.722 820.333 912.667C820.778 912.222 819.722 912.278 819.667 912.333M824 912C825.249 912.685 825.548 912.749 827 913C825.752 912.315 825.451 912.251 824 912M857 912C859.052 912.874 860.747 912.953 863 913C860.948 912.126 859.253 912.047 857 912M875 912C877.052 912.874 878.747 912.953 881 913C878.948 912.126 877.253 912.047 875 912M885 912C886.506 912.683 887.315 912.826 889 913C887.494 912.317 886.685 912.174 885 912M821 916C822.249 916.685 822.548 916.749 824 917C822.752 916.315 822.451 916.251 821 916M818.667 918.333C818.222 918.778 819.278 918.722 819.333 918.667C819.778 918.222 818.722 918.278 818.667 918.333M825 918C826.249 918.685 826.548 918.749 828 919C826.752 918.315 826.452 918.251 825 918z"/>
</svg>
